
<svg display="none" xmlns="http://www.w3.org/2000/svg">

  <symbol id="Icon-test" class="Icon-test" viewBox="0 0 1000 1000" xmlns="http://www.w3.org/2000/svg">
    <path d="M992.5 992.5H7.5V7.5h985v985zM173.7 826.3h652.6V173.7H173.7v652.6z"/>
  </symbol>

  <symbol id="Icon-addsmooth" viewBox="0 0 32 32">
    <path d="M31.99 16.006c0 0.794-0.323 1.514-0.842 2.032-0.522 0.522-1.238 0.842-2.032 0.842h-10.282v10.234c0 1.587-1.286 2.877-2.877 2.877-0.794 0-1.514-0.323-2.032-0.842-0.522-0.522-0.842-1.238-0.842-2.032v-10.234h-10.208c-1.59 0-2.877-1.29-2.877-2.877 0-0.794 0.323-1.514 0.842-2.032 0.522-0.522 1.238-0.842 2.032-0.842h10.208v-10.259c0-1.587 1.286-2.877 2.877-2.877 0.794 0.003 1.514 0.323 2.032 0.845 0.522 0.522 0.842 1.238 0.842 2.032v10.259h10.282c1.59 0 2.877 1.286 2.877 2.874z"></path>
  </symbol>

  <symbol id="Icon-backarrow_smooth" viewBox="0 0 18 32">
    <path d="M0.925 14.091l13.389-13.389c0.937-0.937 2.458-0.937 3.394 0s0.937 2.458 0 3.394l-11.902 11.902 11.899 11.899c0.937 0.937 0.937 2.457 0 3.394s-2.457 0.937-3.394 0l-13.608-13.608c-0.937-0.937-0.937-2.457 0-3.394 0.071-0.071 0.146-0.137 0.223-0.197z"></path>
  </symbol>

  <symbol id="Icon-forarrow_smooth" viewBox="0 0 18 32">
    <path d="M17.486 14.091l-13.389-13.389c-0.937-0.937-2.458-0.937-3.394 0s-0.937 2.458 0 3.394l11.902 11.902-11.899 11.899c-0.937 0.937-0.937 2.457 0 3.394s2.458 0.937 3.394 0l13.608-13.608c0.937-0.937 0.937-2.457 0-3.394-0.071-0.071-0.146-0.137-0.223-0.197z"></path>
  </symbol>

  <symbol id="Icon-home" viewBox="0 0 32 32">
    <path d="M13.114 32h-5.26c-1.237 0-2.241-1.004-2.241-2.241v-12.449l10.234-10.234h0.241l10.263 10.263v12.42c0 1.237-1.004 2.241-2.241 2.241h-5.26v-7.946c0-0.342-0.278-0.62-0.62-0.62h-4.497c-0.342 0-0.62 0.278-0.62 0.62v7.946zM13.928 4.916l-13.114 13.121c-1.124-1.124-1.124-2.949 0-4.073l13.121-13.121c0.561-0.561 1.297-0.842 2.033-0.843 0.736 0.001 1.472 0.282 2.033 0.843l6.366 6.366v-3.98c0-0.237 0.192-0.429 0.429-0.429h3.111c0.237 0 0.429 0.192 0.429 0.429v7.694c0 0.074-0.019 0.143-0.051 0.204l2.837 2.837c1.124 1.124 1.124 2.949 0 4.073-0.019 0.019-0.039 0.038-0.058 0.056v-0.020l-15.146-15.146-1.989 1.989z"></path>
  </symbol>

  <symbol id="Icon-burgermenu_smooth" viewBox="0 0 32 32">
    <path d="M32.038 2.474c0-1.366-1.195-2.474-2.667-2.474h-26.667c-1.472 0-2.667 1.109-2.667 2.474s1.195 2.475 2.667 2.475h26.667c1.472 0 2.667-1.109 2.667-2.474z"></path>
    <path d="M32.038 29.526c0-1.366-1.195-2.474-2.667-2.474h-26.667c-1.472 0-2.667 1.109-2.667 2.474s1.195 2.474 2.667 2.474h26.667c1.472 0 2.667-1.109 2.667-2.474z"></path>
    <path d="M32 16c0-1.366-1.195-2.474-2.667-2.474h-26.667c-1.472 0-2.667 1.109-2.667 2.474s1.195 2.474 2.667 2.474h26.667c1.472 0 2.667-1.109 2.667-2.474z"></path>
  </symbol>

  <symbol id="Icon-options" class="icon-options" viewBox="0 0 1000 1000" xmlns="http://www.w3.org/2000/svg">
    <path d="M542.9 588.2v.1h-.1zM1000.1 786.1c0 61.6-49.9 111.5-111.5 111.5-46.4 0-86.2-28.3-103-68.7H97.4v-85.7h688.3c16.8-40.3 56.6-68.7 103-68.7 61.5.1 111.4 50 111.4 111.6zM902.5 151v85.7H214.3c-16.8 40.3-56.6 68.7-103 68.7C49.7 305.4-.2 255.5-.2 193.9S49.7 82.3 111.3 82.3c46.4 0 86.2 28.3 103 68.7h688.2zM902.5 447.1v85.7H534.2c-16.8 40.3-56.5 68.7-103 68.7-46.4 0-86.2-28.3-103-68.7h-231v-85.7h231c16.8-40.3 56.6-68.7 103-68.7s86.2 28.3 103 68.7h368.3z"/>
  </symbol>

  <symbol id="Icon-config" class="icon-config" viewBox="0 0 1000 1000" xmlns="http://www.w3.org/2000/svg">
    <path d="M999.4 415.1v1c-46.8 27-93.5 54-140.3 81-.8.5-1.6 1-2.5 1.5-.3.2-.5.4-.8.6-.1.1-.2.2-.3.4-.1.1-.1.3-.2.7 1.3.8 2.6 1.6 4 2.4 11.1 6.4 22.1 12.8 33.2 19.2 33.8 19.5 67.5 39 101.3 58.5 1.6.9 3.5 1.6 4.8 3.4-.1 1.3 0 2.7-.3 4.1l-3.9 18.3c-4.2 18.9-9.2 37.5-15.5 55.9-5.6 16.5-12 32.7-19.3 48.5-7.5 16.4-15.8 32.5-25.2 47.9-7 11.5-14.2 22.7-21.4 34.1-.1.1-.3.2-.4.2-.1.1-.3.1-.5.1-1.2-.3-2.5-.5-3.7-.9-33.8-9-67.6-18.1-101.3-27.1-17.9-4.8-35.8-9.6-53.7-14.3-.8-.2-1.5-.6-2.2.5 14.3 53.4 28.5 106.9 42.9 160.6-1.2.9-2.2 1.6-3.3 2.3-8 5-15.9 10.1-24 15-46.2 28.5-95.6 49.2-148.4 61.9-9.6 2.3-19.3 4.4-28.9 6.7-1.3.3-2.9.3-3.6 1.9h-1c-10-17.3-19.9-34.6-29.9-51.9-17.2-29.8-34.4-59.5-51.6-89.2-.8-1.3-1.3-2.8-2.9-4-1 1.6-1.9 2.9-2.7 4.2-6.1 10.5-12.2 21-18.2 31.5-20.1 34.7-40.1 69.5-60.2 104.2-.9 1.5-1.5 3.2-2.9 4.2-40.2-8.9-52.4-12.1-73.8-19.1-24-7.9-47.3-17.5-69.9-29-23.2-11.8-61.2-34.8-65.2-39.2.2-.9.3-1.8.6-2.8 9.3-34.9 18.7-69.7 28-104.6 4.5-16.7 8.9-33.3 13.3-50 .3-1.2 1.1-2.4-.1-3.6-53.5 14.3-107 28.6-160.6 42.9-1-1.5-1.9-2.8-2.8-4.2-4.3-6.8-8.5-13.5-12.8-20.3-16.6-26.3-30.5-54-42-82.8-10.6-26.6-18.8-54-24.9-82-1.5-6.7-3-13.3-4.6-20.2 9.8-5.6 19.4-11.2 29.1-16.8 9.5-5.5 19.1-11 28.6-16.5 9.7-5.6 19.4-11.2 29-16.8 9.5-5.5 19.1-11 28.6-16.5 9.6-5.6 19.3-11 29.6-17.1C130 490.3 114 481 98 471.8c-16.1-9.3-32.1-18.5-48.1-27.8s-32.1-18.4-48.1-27.9c.3-1.6.6-3 .9-4.4 1.8-7.6 3.6-15.2 5.3-22.9 11.6-51.4 30.8-99.7 57.5-145.1 6.9-11.7 14.2-23.1 21.4-34.7.4-.7.9-1.3 1.5-2.1 1.4.3 2.8.5 4.2.8 29.9 8 59.8 16 89.8 24 21.4 5.7 42.9 11.5 64.3 17.2 1 .3 2.1 1 3.3-.1-.2-1-.4-2-.7-3.1-7.6-28.5-15.2-57.1-22.9-85.6-6.1-22.7-12.1-45.4-18.2-68-.4-1.4-1-2.7-.3-4.4 1.1-.7 2.3-1.5 3.5-2.2 6.8-4.3 13.5-8.5 20.3-12.8 37-23.2 76.4-41.3 118-54.5 21-6.7 42.6-11.4 64-16.2.7-.2 1.4-.6 2.1-.9h1c.1.3.1.6.2.9 16.6 28.8 33.3 57.5 49.9 86.3 10.3 17.8 20.6 35.7 30.9 53.5.8 1.3 1.2 3 3.1 3.9 5.5-9.5 11-19.1 16.5-28.6L534.2 88c5.5-9.5 11-19.1 16.5-28.6 5.6-9.7 11.1-19.4 16.8-29.1 5.5-9.5 10.9-19.1 16.7-28.7 2.1.4 3.9.6 5.8 1l21.9 5.1c45 10.2 87.7 26.3 128.3 48.1 17.9 9.6 34.9 20.6 52.1 31.4.4.2.7.6 1.3 1.2-4.6 17.8-9.5 35.6-14.3 53.5l-14.4 53.7c-4.8 17.9-9.5 35.7-14.2 53.4 1.4 1 2.4.4 3.5.1 16.7-4.5 33.3-8.9 50-13.4 34.7-9.3 69.4-18.5 104.1-27.8 1.4-.4 2.7-1 4.4-.3.7 1.1 1.5 2.2 2.3 3.5 4.3 6.9 8.7 13.8 13 20.7 10.1 16 19.1 32.5 27.3 49.5 20.4 42.4 34.5 86.9 43 133.2.4-.2.8.2 1.1.6zM378 93.5c-6.2.8-26.9 8.1-44.5 15.7-17.2 7.4-29.3 13.4-33.1 16.5.3 1.4.7 3 1.1 4.5 9.5 35.6 19 71.3 28.6 106.9 3.5 13.3 3.7 26.5 0 39.8-10.6 38.3-50.2 63.3-91.5 52.3-35.8-9.5-71.6-19.1-107.4-28.7-1.7-.4-3.3-1.1-5-1-8.7 12.8-29.6 63.4-31.9 77.2 1.2.8 2.5 1.6 3.9 2.4 13.6 7.8 27.1 15.7 40.7 23.5 18.8 10.9 37.8 21.5 56.4 32.7 23.2 14 35.6 34.9 36.6 62 .8 20.5-6.1 38.3-19.9 53.3-5.7 6.2-12.4 10.9-19.7 15.1-31.3 18-62.6 36.1-93.8 54.1-1.5.9-3 1.8-4.6 2.8 8.2 26.9 18.8 52.5 32 77.1 1-.1 1.8-.2 2.6-.4 4.9-1.3 9.9-2.7 14.8-4 32.1-8.6 64.2-17.2 96.3-25.7 9-2.4 18.2-3.1 27.6-1.8 19.4 2.5 35.6 11.1 48.1 26.1 16.6 20 21.4 42.9 14.9 67.9-9.4 35.9-19.1 71.6-28.6 107.4-.4 1.5-.7 3.1-1.1 4.8 24.7 13.2 50.3 23.8 77.2 31.9 1-1.5 1.8-2.9 2.6-4.2 5.3-9.1 10.6-18.3 15.8-27.4 13.4-23.2 26.7-46.6 40.3-69.7 21.6-36.8 68.8-47.6 104.4-25.3 10.8 6.8 19.1 15.9 25.4 26.9 18.2 31.6 36.4 63.1 54.6 94.7.9 1.6 2 3.2 2.9 4.8 14.3-2.4 68.5-25 77.4-32.3-.4-1.8-.8-3.6-1.3-5.5-9.4-35.2-18.8-70.4-28.3-105.5-3.3-12.1-3.8-24.3-1.1-36.5 7.3-32.9 36.2-58.1 72-58.7 7.6-.1 15 1.1 22.2 3 33.9 9.1 67.9 18.2 101.8 27.3 2.9.8 5.8 1.5 8.9 2.2.7-1.1 1.3-2 1.8-3 12.1-23.1 22-47.2 29.7-72.1.2-.7.3-1.5.4-2.3-2-1.2-3.7-2.2-5.5-3.3-31.5-18.2-63.2-36.3-94.6-54.7-21.4-12.5-34-31-37.2-55.7-2.8-21.4 3-40.5 16.7-57.2 5.9-7.3 13.2-12.9 21.3-17.6 31.7-18.2 63.4-36.6 95.1-54.9 1.5-.9 3.2-1.5 4.2-2.9-4.8-19.9-23.7-64.3-32.2-77-1.4.3-3 .6-4.5 1-35.8 9.6-71.6 19.1-107.4 28.7-10.3 2.8-20.8 3.4-31.3 1.7-20.1-3.3-36.3-13-48.3-29.3-13.9-18.8-18-39.9-12.5-62.7 2.3-9.5 4.9-18.8 7.5-28.3 7.3-27.5 14.7-54.9 22-82.4.3-1 .3-2.1.4-3-.5-.4-.8-.6-1-.8-23.5-12.5-47.9-22.6-73.3-30.5-.9-.3-1.8-.3-2.9-.4-1.1 1.8-2.1 3.4-3.1 5-18.3 31.7-36.4 63.5-54.9 95-13.8 23.5-34.6 36.3-61.9 37.6-20.3 1-38-5.6-53.2-19.1-6.7-5.9-11.7-13-16.1-20.7-17.9-31.2-35.9-62.3-53.9-93.4-.9-1.1-1.8-2.6-2.6-3.9z"/>
    <path d="M700.3 499.8c.3 109.6-89.5 199.5-199.7 199.5-108.3 0-199.8-87.9-199.6-200.1C301.2 388 392 299 502.4 300c111 1 198.5 91.9 197.9 199.8zM500.9 379.9c-66.1 0-119.7 53.8-119.9 119.4-.1 65.8 53.4 119.7 119.3 120 65.9.2 119.8-53.6 120.1-119.2.3-64.9-52.4-119.9-119.5-120.2z"/>
  </symbol>

  <symbol id="Icon-closesmooth" viewBox="0 0 32 32">
    <path d="M30.795 1.218c0.734 0.734 1.101 1.698 1.101 2.657 0 0.964-0.367 1.923-1.101 2.657l-9.506 9.506 9.461 9.461c1.467 1.467 1.47 3.849 0 5.319-0.734 0.734-1.698 1.101-2.657 1.101-0.964 0-1.923-0.367-2.657-1.101l-9.461-9.461-9.438 9.438c-1.47 1.47-3.852 1.467-5.319 0-0.734-0.734-1.101-1.698-1.101-2.657 0-0.964 0.367-1.923 1.101-2.657l9.438-9.438-9.485-9.485c-1.467-1.467-1.47-3.849 0-5.319 0.737-0.731 1.698-1.101 2.66-1.098 0.964 0 1.923 0.367 2.657 1.101l9.485 9.485 9.506-9.506c1.47-1.47 3.849-1.47 5.316-0.003z"></path>
  </symbol>

  <symbol id="Icon-design_edit" class="icon-design_edit" viewBox="0 0 800 800" xmlns="http://www.w3.org/2000/svg">
    <path d="M254 800.1H.4V543.8l14-12.8c15.5-15.3 265.9-265.8 288.7-288.8l29.7-38.1 258.4 258.4-31.9 31.8c-1.8 1.8-289.2 289.7-292.1 292.6L254 800.1zm-163.6-90h126.3c46.8-46.9 184.5-184.8 247.2-247.6L337 335.6 223.1 449.5 90.3 582.3v127.8zM15 530.4s-.1.1-.3.2l.3-.2zM655.7 398.8L624 367.1c-42.2-42.1-85.1-85-126.6-126.5-21.4-21.4-42.7-42.8-64.1-64.1l-31.8-31.8L545.6.6l31.8 31.9C640.2 95.4 704.2 159.4 766 221.2l33.9 33.9-31.9 31.7c-11.5 11.4-22.9 22.9-34.4 34.4-15.1 15.1-30.7 30.7-46.1 46l-31.8 31.6zM528.8 144.7l32.3 32.3 94.7 94.7 14.1-14.1 2.7-2.7c-42-42-84.6-84.6-127-127.1l-16.8 16.9z"/>
  </symbol>

  <symbol id="Icon-palme" viewBox="0 0 32 32">
    <path d="M16.12 12.833c-0.175-0.062-0.416-0.139-0.778-0.244-1.685-0.488-4.209 3.16-4.209 3.16-0.345-0.161-0.499-1.922 0.57-3.427 1.736-2.445 4.987-0.584 4.297-1.090-1.941-1.422-4.697-4.003-8.551-2.655-1.384 0.484-2.174 1.204-2.247 0.936-0.191-0.699 1.119-3.237 2.085-3.938 1.418-1.029 3.195-1.015 5.052 0.034 2.54 1.434 4.431 4.932 4.378 4.094s-0.201-2.803-1.524-4.32c-3.714-4.255-8.113-4.039-8.151-4.123-0.218-0.486 2.558-1.413 4.977-1.069 6.374 0.907 6.746 6.225 6.636 7.548-0.072 0.871-0.18 1.596 0.053 1.558 0.186-0.031 0.697-1.183 1.255-1.834 1.867-2.182 4.499-2.791 7.92-1.428 3.967 1.58 4.338 7.299 3.711 6.339s-1.663-2.374-5.722-3.906c-3.543-1.338-7.050 2.789-7.050 2.789s2.092-2.18 5.581-1.101c4.473 1.384 5.582 3.682 6.29 5.421 0.405 0.995 0.167 2.327-0.253 2.641-0.369 0.276-0.445-2.789-6.674-5.379-1.835-0.763-4.125-0.177-4.125-0.177s2.282 0.851 2.843 1.644c0.561 0.793 0.163 3.346 0.063 3.39-0.197 0.088-1.247-2.040-1.627-2.467-2.028-2.281-3.021-1.96-3.021-1.96s-0.752 0.985-1.061 7.902c-0.056 1.251-0.063 2.708 0 4.407v3.706c0 1.498-1.216 2.713-2.713 2.713s-2.713-1.216-2.713-2.713v-2.95c0.093-2.835 0.762-9.198 4.71-13.504z"></path>
  </symbol>

  <symbol id="Icon-university" viewBox="0 0 32 32">
    <path d="M7.594 18.895l2.559 1.316c1.715 0.882 3.121 1.057 4.397 1.168 2.863 0.248 5.238-0.198 7.124-1.168l2.56-1.317v5.895c0 2.296-1.864 4.16-4.16 4.16h-8.32c-2.296 0-4.16-1.864-4.16-4.16v-5.894z"></path>
    <path d="M27.711 14.851l-7.119 3.662c-1.528 0.786-3.451 1.147-5.769 0.946-1.034-0.090-2.173-0.232-3.561-0.946l-9.331-4.8c-0.181-0.093-0.367-0.199-0.556-0.325-0.154-0.103-0.312-0.219-0.465-0.351-0.951-0.825-0.964-1.651-0.872-2.090 0.024-0.115 0.058-0.222 0.098-0.323 0.051-0.128 0.113-0.246 0.182-0.357 0.096-0.153 0.206-0.293 0.327-0.422 0.161-0.173 0.341-0.329 0.533-0.471 0.234-0.172 0.486-0.325 0.752-0.462l9.448-4.861c1.528-0.786 3.451-1.147 5.769-0.946 1.034 0.090 2.173 0.232 3.561 0.946l9.33 4.8c0.181 0.093 0.367 0.199 0.556 0.325 0.154 0.103 0.312 0.219 0.465 0.351 0.951 0.826 0.964 1.651 0.872 2.090-0.024 0.115-0.058 0.222-0.098 0.323-0.051 0.128-0.113 0.246-0.182 0.357-0.096 0.153-0.206 0.293-0.327 0.422-0.161 0.173-0.341 0.329-0.533 0.471-0.234 0.172-0.486 0.325-0.752 0.462l-1.139 0.586v4.212c0.245 0.039 0.433 0.252 0.433 0.508v1.111c0 0.284-0.23 0.514-0.514 0.514h0.429c0.417 0 0.756 0.339 0.756 0.756v1.513c0 0.417-0.339 0.756-0.756 0.756h-1.886c-0.417 0-0.756-0.339-0.756-0.756v-1.513c0-0.417 0.339-0.756 0.756-0.756h0.429c-0.284 0-0.514-0.23-0.514-0.514v-1.111c0-0.256 0.188-0.469 0.433-0.508v-3.6z"></path>
  </symbol>

  <symbol id="Icon-thermometer" viewBox="0 0 32 32">
    <path d="M11.2 29.932c-1.121-1.185-1.81-2.784-1.81-4.542s0.688-3.357 1.81-4.542v-16.048c0-2.649 2.151-4.8 4.8-4.8s4.8 2.151 4.8 4.8v16.048c1.121 1.185 1.81 2.784 1.81 4.542s-0.688 3.357-1.81 4.542c-1.205 1.273-2.91 2.068-4.8 2.068s-3.595-0.795-4.8-2.068zM18.88 21.97v-16.876c0-1.59-1.291-2.88-2.88-2.88s-2.88 1.29-2.88 2.88v16.876c-0.978 0.822-1.601 2.055-1.601 3.431 0 2.473 2.008 4.481 4.481 4.481s4.481-2.008 4.481-4.481c0-1.377-0.622-2.609-1.601-3.431zM14.834 23.085v-13.013c0-0.643 0.522-1.166 1.166-1.166s1.166 0.522 1.166 1.166v13.013c0.884 0.432 1.494 1.341 1.494 2.391v0.167c0 1.468-1.192 2.66-2.66 2.66s-2.66-1.192-2.66-2.66v-0.167c0-1.050 0.61-1.959 1.494-2.391z"></path>
  </symbol>

  <symbol id="Icon-clock" viewBox="0 0 32 32">
    <path d="M16 0c8.831 0 16 7.169 16 16s-7.169 16-16 16c-8.831 0-16-7.169-16-16s7.169-16 16-16zM16 2.389c-7.512 0-13.611 6.099-13.611 13.611s6.099 13.611 13.611 13.611c7.512 0 13.611-6.099 13.611-13.611s-6.099-13.611-13.611-13.611zM14.849 15.98c-0-0.012-0.001-0.024-0.001-0.037v-9.856c0-0.636 0.516-1.152 1.152-1.152s1.152 0.516 1.152 1.152v9.193l5.743 3.315c0.551 0.318 0.74 1.023 0.422 1.574s-1.023 0.74-1.574 0.422l-6.319-3.648c-0.273-0.158-0.457-0.41-0.534-0.692-0.024-0.088-0.038-0.179-0.041-0.271z"></path>
  </symbol>

  <symbol id="Icon-heart" viewBox="0 0 32 32">
    <path d="M0.729 10.191c-0.061-0.424-0.098-0.847-0.109-1.269 0-0.008 0-0.015 0-0.023 0.065-3.807 3.485-6.88 7.689-6.88s7.624 3.073 7.689 6.88c0.001 0.037 0.001 0.073 0.001 0.11 0-0.037 0-0.073 0.001-0.11 0.065-3.807 3.485-6.88 7.689-6.88s7.624 3.073 7.689 6.88h0.001c0 0 0.969 6.792-15.38 21.081 0 0-13.875-10.014-15.271-19.79z"></path>
  </symbol>

  <symbol id="Icon-information" viewBox="0 0 32 32">
    <path d="M16 0c8.831 0 16 7.169 16 16s-7.169 16-16 16c-8.831 0-16-7.169-16-16s7.169-16 16-16zM16 2.88c-7.241 0-13.12 5.879-13.12 13.12s5.879 13.12 13.12 13.12c7.241 0 13.12-5.879 13.12-13.12s-5.879-13.12-13.12-13.12zM18.878 17.28v6.080c0 1.59-1.291 2.88-2.88 2.88s-2.88-1.291-2.88-2.88v-6.080c0-1.589 1.29-2.88 2.88-2.88s2.88 1.29 2.88 2.88zM18.882 8.64c0 1.589-1.291 2.88-2.88 2.88s-2.88-1.29-2.88-2.88c0-1.59 1.29-2.88 2.88-2.88s2.88 1.29 2.88 2.88z"></path>
  </symbol>

  <symbol id="Icon-information2" viewBox="0 0 32 32">
    <path d="M15.998 32c-8.83-0.001-15.998-7.17-15.998-16s7.169-16 16-16 16 7.169 16 16c0 8.831-7.169 16-16 16h-0.002zM18.878 28.803c5.859-1.313 10.242-6.55 10.242-12.803 0-7.241-5.879-13.12-13.12-13.12s-13.12 5.879-13.12 13.12c0 6.251 4.381 11.487 10.238 12.802v-11.522c0-1.589 1.29-2.88 2.88-2.88s2.88 1.29 2.88 2.88v11.523zM18.882 8.64c0 1.589-1.291 2.88-2.88 2.88s-2.88-1.29-2.88-2.88c0-1.59 1.29-2.88 2.88-2.88s2.88 1.29 2.88 2.88z"></path>
  </symbol>

</svg>